<svg xmlns="http://www.w3.org/2000/svg" xmlns:xlink="http://www.w3.org/1999/xlink" width="500" zoomAndPan="magnify" viewBox="0 0 375 374.999991" height="500" preserveAspectRatio="xMidYMid meet" version="1.2"><defs><clipPath id="8e07ceb641"><path d="M 13.03125 31.996094 L 362 31.996094 L 362 343.003906 L 13.03125 343.003906 Z M 13.03125 31.996094 "/></clipPath><clipPath id="83dd1b05c3"><path d="M 50.53125 31.996094 L 324.46875 31.996094 C 345.179688 31.996094 361.96875 48.785156 361.96875 69.496094 L 361.96875 305.503906 C 361.96875 326.214844 345.179688 343.003906 324.46875 343.003906 L 50.53125 343.003906 C 29.820312 343.003906 13.03125 326.214844 13.03125 305.503906 L 13.03125 69.496094 C 13.03125 48.785156 29.820312 31.996094 50.53125 31.996094 Z M 50.53125 31.996094 "/></clipPath><clipPath id="e3f1ab7653"><path d="M 31.695312 61.75 L 344 61.75 L 344 313.25 L 31.695312 313.25 Z M 31.695312 61.75 "/></clipPath><clipPath id="b9916c29f6"><path d="M 69.195312 61.75 L 305.804688 61.75 C 326.515625 61.75 343.304688 78.539062 343.304688 99.25 L 343.304688 275.75 C 343.304688 296.460938 326.515625 313.25 305.804688 313.25 L 69.195312 313.25 C 48.484375 313.25 31.695312 296.460938 31.695312 275.75 L 31.695312 99.25 C 31.695312 78.539062 48.484375 61.75 69.195312 61.75 Z M 69.195312 61.75 "/></clipPath><clipPath id="c6d3cedd0b"><path d="M 57.410156 75.25 L 317.867188 75.25 L 317.867188 299.75 L 57.410156 299.75 Z M 57.410156 75.25 "/></clipPath><clipPath id="a2998079dc"><path d="M 94.910156 75.25 L 280.089844 75.25 C 300.800781 75.25 317.589844 92.039062 317.589844 112.75 L 317.589844 262.25 C 317.589844 282.960938 300.800781 299.75 280.089844 299.75 L 94.910156 299.75 C 74.199219 299.75 57.410156 282.960938 57.410156 262.25 L 57.410156 112.75 C 57.410156 92.039062 74.199219 75.25 94.910156 75.25 Z M 94.910156 75.25 "/></clipPath><clipPath id="ffa2b88bbb"><path d="M 80.171875 100.300781 L 295 100.300781 L 295 274.699219 L 80.171875 274.699219 Z M 80.171875 100.300781 "/></clipPath><clipPath id="8bd44c0931"><path d="M 294.804688 137.796875 L 294.804688 237.203125 C 294.804688 257.910156 278.019531 274.699219 257.308594 274.699219 L 117.667969 274.699219 C 96.960938 274.699219 80.171875 257.910156 80.171875 237.203125 L 80.171875 137.796875 C 80.171875 117.089844 96.960938 100.300781 117.667969 100.300781 L 257.308594 100.300781 C 278.019531 100.300781 294.804688 117.089844 294.804688 137.796875 Z M 294.804688 137.796875 "/></clipPath></defs><g id="91fcf4b232"><rect x="0" width="375" y="0" height="374.999991" style="fill:#ffffff;fill-opacity:1;stroke:none;"/><rect x="0" width="375" y="0" height="374.999991" style="fill:#ffffff;fill-opacity:1;stroke:none;"/><rect x="0" width="375" y="0" height="374.999991" style="fill:#9cadb7;fill-opacity:1;stroke:none;"/><g clip-rule="nonzero" clip-path="url(#8e07ceb641)"><g clip-rule="nonzero" clip-path="url(#83dd1b05c3)"><path style=" stroke:none;fill-rule:nonzero;fill:#445859;fill-opacity:1;" d="M 13.03125 31.996094 L 361.699219 31.996094 L 361.699219 343.003906 L 13.03125 343.003906 Z M 13.03125 31.996094 "/></g></g><g clip-rule="nonzero" clip-path="url(#e3f1ab7653)"><g clip-rule="nonzero" clip-path="url(#b9916c29f6)"><path style=" stroke:none;fill-rule:nonzero;fill:#9cadb7;fill-opacity:1;" d="M 31.695312 61.75 L 343.125 61.75 L 343.125 313.25 L 31.695312 313.25 Z M 31.695312 61.75 "/></g></g><g clip-rule="nonzero" clip-path="url(#c6d3cedd0b)"><g clip-rule="nonzero" clip-path="url(#a2998079dc)"><path style=" stroke:none;fill-rule:nonzero;fill:#a3454b;fill-opacity:1;" d="M 57.410156 75.25 L 317.867188 75.25 L 317.867188 299.75 L 57.410156 299.75 Z M 57.410156 75.25 "/></g></g><g clip-rule="nonzero" clip-path="url(#ffa2b88bbb)"><g clip-rule="nonzero" clip-path="url(#8bd44c0931)"><path style=" stroke:none;fill-rule:nonzero;fill:#235168;fill-opacity:1;" d="M 80.171875 100.300781 L 294.761719 100.300781 L 294.761719 274.699219 L 80.171875 274.699219 Z M 80.171875 100.300781 "/></g></g><g style="fill:#fefefe;fill-opacity:1;"><g transform="translate(101.18877, 151.44813)"><path style="stroke:none" d="M 17.765625 -17.9375 L 11.375 -17.9375 L 11.375 0 L 7.03125 0 L 7.03125 -17.9375 L 0.640625 -17.9375 L 0.640625 -21.59375 L 17.765625 -21.59375 Z M 17.765625 -17.9375 "/></g></g><g style="fill:#fefefe;fill-opacity:1;"><g transform="translate(119.617548, 151.44813)"><path style="stroke:none" d="M 6.515625 -9.046875 C 6.515625 -7.835938 6.566406 -6.972656 6.671875 -6.453125 C 6.828125 -5.546875 7.238281 -4.804688 7.90625 -4.234375 C 8.582031 -3.660156 9.578125 -3.375 10.890625 -3.375 C 12.097656 -3.375 13 -3.59375 13.59375 -4.03125 C 14.195312 -4.476562 14.585938 -5.085938 14.765625 -5.859375 C 14.953125 -6.640625 15.046875 -7.691406 15.046875 -9.015625 L 15.046875 -21.59375 L 19.390625 -21.59375 L 19.390625 -9.765625 C 19.390625 -7.960938 19.3125 -6.5 19.15625 -5.375 C 18.570312 -1.550781 15.851562 0.359375 11 0.359375 C 8.40625 0.359375 6.460938 -0.078125 5.171875 -0.953125 C 3.890625 -1.828125 3.066406 -2.9375 2.703125 -4.28125 C 2.347656 -5.625 2.171875 -7.320312 2.171875 -9.375 L 2.171875 -21.59375 L 6.515625 -21.59375 Z M 6.515625 -9.046875 "/></g></g><g style="fill:#fefefe;fill-opacity:1;"><g transform="translate(141.394267, 151.44813)"><path style="stroke:none" d="M 17.765625 -17.9375 L 11.375 -17.9375 L 11.375 0 L 7.03125 0 L 7.03125 -17.9375 L 0.640625 -17.9375 L 0.640625 -21.59375 L 17.765625 -21.59375 Z M 17.765625 -17.9375 "/></g></g><g style="fill:#fefefe;fill-opacity:1;"><g transform="translate(159.823045, 151.44813)"><path style="stroke:none" d="M 17.765625 -17.9375 L 11.375 -17.9375 L 11.375 0 L 7.03125 0 L 7.03125 -17.9375 L 0.640625 -17.9375 L 0.640625 -21.59375 L 17.765625 -21.59375 Z M 17.765625 -17.9375 "/></g></g><g style="fill:#fefefe;fill-opacity:1;"><g transform="translate(178.251822, 151.44813)"><path style="stroke:none" d="M 6.390625 0 L 2.046875 0 L 2.046875 -21.59375 L 6.390625 -21.59375 Z M 6.390625 0 "/></g></g><g style="fill:#fefefe;fill-opacity:1;"><g transform="translate(186.636763, 151.44813)"><path style="stroke:none" d=""/></g></g><g style="fill:#fefefe;fill-opacity:1;"><g transform="translate(195.021704, 151.44813)"><path style="stroke:none" d="M 6.390625 0 L 2.046875 0 L 2.046875 -21.59375 L 6.390625 -21.59375 Z M 6.390625 0 "/></g></g><g style="fill:#fefefe;fill-opacity:1;"><g transform="translate(203.406645, 151.44813)"><path style="stroke:none" d=""/></g></g><g style="fill:#fefefe;fill-opacity:1;"><g transform="translate(211.791585, 151.44813)"><path style="stroke:none" d="M 12.609375 -6.90625 L 16.4375 -21.59375 L 22.984375 -21.59375 L 22.984375 0 L 18.9375 0 L 18.9375 -17.015625 L 14.6875 0 L 10.5 0 L 6.1875 -16.984375 L 6.1875 0 L 2.140625 0 L 2.140625 -21.59375 L 8.65625 -21.59375 Z M 12.609375 -6.90625 "/></g></g><g style="fill:#fefefe;fill-opacity:1;"><g transform="translate(236.916244, 151.44813)"><path style="stroke:none" d="M 6.390625 0 L 2.046875 0 L 2.046875 -21.59375 L 6.390625 -21.59375 Z M 6.390625 0 "/></g></g><g style="fill:#fefefe;fill-opacity:1;"><g transform="translate(245.301185, 151.44813)"><path style="stroke:none" d="M 18.21875 -17.9375 L 6.546875 -17.9375 L 6.546875 -13.140625 L 17.40625 -13.140625 L 17.40625 -9.5 L 6.546875 -9.5 L 6.546875 -3.65625 L 18.609375 -3.65625 L 18.609375 0 L 2.203125 0 L 2.203125 -21.59375 L 18.21875 -21.59375 Z M 18.21875 -17.9375 "/></g></g><g style="fill:#fefefe;fill-opacity:1;"><g transform="translate(265.41903, 151.44813)"><path style="stroke:none" d="M 6.390625 0 L 2.046875 0 L 2.046875 -21.59375 L 6.390625 -21.59375 Z M 6.390625 0 "/></g></g><g style="fill:#fefefe;fill-opacity:1;"><g transform="translate(115.441655, 193.548957)"><path style="stroke:none" d="M 17.09375 -19.578125 C 19.207031 -17.679688 20.265625 -14.664062 20.265625 -10.53125 C 20.265625 -7.050781 19.328125 -4.328125 17.453125 -2.359375 C 15.992188 -0.785156 13.734375 0 10.671875 0 L 2.171875 0 L 2.171875 -21.59375 L 10.578125 -21.59375 C 12.109375 -21.59375 13.375 -21.4375 14.375 -21.125 C 15.382812 -20.8125 16.289062 -20.296875 17.09375 -19.578125 Z M 15.765625 -10.765625 C 15.765625 -12.835938 15.519531 -14.390625 15.03125 -15.421875 C 14.539062 -16.460938 13.832031 -17.140625 12.90625 -17.453125 C 11.976562 -17.773438 10.710938 -17.9375 9.109375 -17.9375 L 6.515625 -17.9375 L 6.515625 -3.65625 L 10.125 -3.65625 C 11.476562 -3.65625 12.550781 -3.828125 13.34375 -4.171875 C 14.132812 -4.523438 14.734375 -5.210938 15.140625 -6.234375 C 15.554688 -7.265625 15.765625 -8.773438 15.765625 -10.765625 Z M 15.765625 -10.765625 "/></g></g><g style="fill:#fefefe;fill-opacity:1;"><g transform="translate(137.218373, 193.548957)"><path style="stroke:none" d="M 6.390625 0 L 2.046875 0 L 2.046875 -21.59375 L 6.390625 -21.59375 Z M 6.390625 0 "/></g></g><g style="fill:#fefefe;fill-opacity:1;"><g transform="translate(145.603314, 193.548957)"><path style="stroke:none" d="M 16.671875 -20.890625 C 17.578125 -20.515625 18.332031 -19.84375 18.9375 -18.875 C 19.539062 -17.914062 19.84375 -16.800781 19.84375 -15.53125 C 19.84375 -13.925781 19.34375 -12.570312 18.34375 -11.46875 C 17.351562 -10.375 15.953125 -9.71875 14.140625 -9.5 C 14.921875 -8.957031 15.519531 -8.507812 15.9375 -8.15625 C 16.351562 -7.800781 16.804688 -7.304688 17.296875 -6.671875 C 17.785156 -6.046875 18.394531 -5.148438 19.125 -3.984375 L 21.59375 0 L 16.375 0 L 12.875 -5.25 C 12.09375 -6.414062 11.484375 -7.242188 11.046875 -7.734375 C 10.617188 -8.222656 10.160156 -8.554688 9.671875 -8.734375 C 9.191406 -8.921875 8.507812 -9.015625 7.625 -9.015625 L 6.546875 -9.015625 L 6.546875 0 L 2.203125 0 L 2.203125 -21.59375 L 11.640625 -21.59375 C 12.660156 -21.59375 13.585938 -21.546875 14.421875 -21.453125 C 15.265625 -21.367188 16.015625 -21.179688 16.671875 -20.890625 Z M 13.59375 -12.703125 C 14.125 -12.859375 14.546875 -13.15625 14.859375 -13.59375 C 15.179688 -14.039062 15.34375 -14.597656 15.34375 -15.265625 C 15.34375 -16.410156 14.851562 -17.203125 13.875 -17.640625 C 13.613281 -17.765625 13.289062 -17.84375 12.90625 -17.875 C 12.519531 -17.914062 11.867188 -17.9375 10.953125 -17.9375 L 6.546875 -17.9375 L 6.546875 -12.453125 L 10.375 -12.453125 C 11.9375 -12.453125 13.007812 -12.535156 13.59375 -12.703125 Z M 13.59375 -12.703125 "/></g></g><g style="fill:#fefefe;fill-opacity:1;"><g transform="translate(167.380032, 193.548957)"><path style="stroke:none" d="M 6.390625 0 L 2.046875 0 L 2.046875 -21.59375 L 6.390625 -21.59375 Z M 6.390625 0 "/></g></g><g style="fill:#fefefe;fill-opacity:1;"><g transform="translate(175.764973, 193.548957)"><path style="stroke:none" d="M 17.765625 -17.9375 L 11.375 -17.9375 L 11.375 0 L 7.03125 0 L 7.03125 -17.9375 L 0.640625 -17.9375 L 0.640625 -21.59375 L 17.765625 -21.59375 Z M 17.765625 -17.9375 "/></g></g><g style="fill:#fefefe;fill-opacity:1;"><g transform="translate(194.193751, 193.548957)"><path style="stroke:none" d="M 17.765625 -17.9375 L 11.375 -17.9375 L 11.375 0 L 7.03125 0 L 7.03125 -17.9375 L 0.640625 -17.9375 L 0.640625 -21.59375 L 17.765625 -21.59375 Z M 17.765625 -17.9375 "/></g></g><g style="fill:#fefefe;fill-opacity:1;"><g transform="translate(212.622529, 193.548957)"><path style="stroke:none" d="M 6.390625 0 L 2.046875 0 L 2.046875 -21.59375 L 6.390625 -21.59375 Z M 6.390625 0 "/></g></g><g style="fill:#fefefe;fill-opacity:1;"><g transform="translate(221.00747, 193.548957)"><path style="stroke:none" d=""/></g></g><g style="fill:#fefefe;fill-opacity:1;"><g transform="translate(229.39241, 193.548957)"><path style="stroke:none" d="M 17.09375 -19.578125 C 19.207031 -17.679688 20.265625 -14.664062 20.265625 -10.53125 C 20.265625 -7.050781 19.328125 -4.328125 17.453125 -2.359375 C 15.992188 -0.785156 13.734375 0 10.671875 0 L 2.171875 0 L 2.171875 -21.59375 L 10.578125 -21.59375 C 12.109375 -21.59375 13.375 -21.4375 14.375 -21.125 C 15.382812 -20.8125 16.289062 -20.296875 17.09375 -19.578125 Z M 15.765625 -10.765625 C 15.765625 -12.835938 15.519531 -14.390625 15.03125 -15.421875 C 14.539062 -16.460938 13.832031 -17.140625 12.90625 -17.453125 C 11.976562 -17.773438 10.710938 -17.9375 9.109375 -17.9375 L 6.515625 -17.9375 L 6.515625 -3.65625 L 10.125 -3.65625 C 11.476562 -3.65625 12.550781 -3.828125 13.34375 -4.171875 C 14.132812 -4.523438 14.734375 -5.210938 15.140625 -6.234375 C 15.554688 -7.265625 15.765625 -8.773438 15.765625 -10.765625 Z M 15.765625 -10.765625 "/></g></g><g style="fill:#fefefe;fill-opacity:1;"><g transform="translate(251.169129, 193.548957)"><path style="stroke:none" d="M 6.390625 0 L 2.046875 0 L 2.046875 -21.59375 L 6.390625 -21.59375 Z M 6.390625 0 "/></g></g><g style="fill:#fefefe;fill-opacity:1;"><g transform="translate(116.280949, 235.649785)"><path style="stroke:none" d="M 17.03125 -17.9375 L 6.578125 -17.9375 L 6.578125 -12.8125 L 15.625 -12.8125 L 15.625 -9.171875 L 6.578125 -9.171875 L 6.578125 0 L 2.234375 0 L 2.234375 -21.59375 L 17.03125 -21.59375 Z M 17.03125 -17.9375 "/></g></g><g style="fill:#fefefe;fill-opacity:1;"><g transform="translate(131.361683, 235.649785)"><path style="stroke:none" d="M 21.6875 0 L 16.921875 0 L 15.046875 -4.890625 L 6.421875 -4.890625 L 4.640625 0 L 0 0 L 8.40625 -21.59375 L 13.03125 -21.59375 Z M 7.75 -8.53125 L 13.65625 -8.53125 L 10.671875 -16.5625 Z M 7.75 -8.53125 "/></g></g><g style="fill:#fefefe;fill-opacity:1;"><g transform="translate(153.138401, 235.649785)"><path style="stroke:none" d="M 12.609375 -6.90625 L 16.4375 -21.59375 L 22.984375 -21.59375 L 22.984375 0 L 18.9375 0 L 18.9375 -17.015625 L 14.6875 0 L 10.5 0 L 6.1875 -16.984375 L 6.1875 0 L 2.140625 0 L 2.140625 -21.59375 L 8.65625 -21.59375 Z M 12.609375 -6.90625 "/></g></g><g style="fill:#fefefe;fill-opacity:1;"><g transform="translate(178.263068, 235.649785)"><path style="stroke:none" d="M 6.390625 0 L 2.046875 0 L 2.046875 -21.59375 L 6.390625 -21.59375 Z M 6.390625 0 "/></g></g><g style="fill:#fefefe;fill-opacity:1;"><g transform="translate(186.648009, 235.649785)"><path style="stroke:none" d="M 12.15625 -21.953125 C 14.625 -21.953125 16.648438 -21.429688 18.234375 -20.390625 C 19.828125 -19.359375 20.863281 -17.769531 21.34375 -15.625 L 17.015625 -14.8125 C 16.691406 -15.9375 16.09375 -16.785156 15.21875 -17.359375 C 14.34375 -17.929688 13.332031 -18.21875 12.1875 -18.21875 C 11.019531 -18.21875 9.992188 -17.992188 9.109375 -17.546875 C 8.222656 -17.109375 7.519531 -16.46875 7 -15.625 C 6.289062 -14.5 5.9375 -12.96875 5.9375 -11.03125 C 5.9375 -8.757812 6.445312 -6.914062 7.46875 -5.5 C 8.5 -4.082031 10.050781 -3.375 12.125 -3.375 C 13.007812 -3.375 13.894531 -3.539062 14.78125 -3.875 C 15.664062 -4.207031 16.476562 -4.65625 17.21875 -5.21875 L 17.21875 -7.9375 L 12.25 -7.9375 L 12.25 -11.578125 L 21.625 -11.578125 L 21.625 -2.984375 C 20.539062 -1.984375 19.144531 -1.175781 17.4375 -0.5625 C 15.738281 0.0507812 14.054688 0.359375 12.390625 0.359375 C 9.984375 0.359375 7.957031 -0.140625 6.3125 -1.140625 C 4.675781 -2.148438 3.457031 -3.503906 2.65625 -5.203125 C 1.851562 -6.898438 1.453125 -8.785156 1.453125 -10.859375 C 1.453125 -12.867188 1.84375 -14.710938 2.625 -16.390625 C 3.40625 -18.066406 4.597656 -19.410156 6.203125 -20.421875 C 7.816406 -21.441406 9.800781 -21.953125 12.15625 -21.953125 Z M 12.15625 -21.953125 "/></g></g><g style="fill:#fefefe;fill-opacity:1;"><g transform="translate(210.11378, 235.649785)"><path style="stroke:none" d="M 6.671875 -3.65625 L 17.515625 -3.65625 L 17.515625 0 L 2.328125 0 L 2.328125 -21.59375 L 6.671875 -21.59375 Z M 6.671875 -3.65625 "/></g></g><g style="fill:#fefefe;fill-opacity:1;"><g transform="translate(228.542558, 235.649785)"><path style="stroke:none" d="M 6.390625 0 L 2.046875 0 L 2.046875 -21.59375 L 6.390625 -21.59375 Z M 6.390625 0 "/></g></g><g style="fill:#fefefe;fill-opacity:1;"><g transform="translate(236.927498, 235.649785)"><path style="stroke:none" d="M 21.6875 0 L 16.921875 0 L 15.046875 -4.890625 L 6.421875 -4.890625 L 4.640625 0 L 0 0 L 8.40625 -21.59375 L 13.03125 -21.59375 Z M 7.75 -8.53125 L 13.65625 -8.53125 L 10.671875 -16.5625 Z M 7.75 -8.53125 "/></g></g></g></svg>